<svg width="20" height="20" xmlns="http://www.w3.org/2000/svg"><path d="M16.09 12.937c.228 1.141-.833 2.063-2.373 2.063-1.535 0-2.962-.922-3.186-2.063-.23-1.142.833-2.068 2.372-2.068.323 0 .641.042.945.117a3.5 3.5 0 0 1 .468.151c.435-.01-.052-1.147-.917-6.114-1.067-6.152 1.53-.935 4.384-1.377 2.854-.442.038 2.41-1.825 1.922-1.862-.493-2.325-3.577.132 7.37zM7.46 8.563c-1.862-.493-2.325-3.576.13 7.37C7.816 17.073 6.754 18 5.22 18c-1.535 0-2.961-.926-3.19-2.068-.224-1.142.837-2.067 2.375-2.067.501 0 .987.098 1.427.272.412-.028-.074-1.189-.93-6.114C3.834 1.87 6.43 7.087 9.282 6.646c2.854-.447.038 2.41-1.823 1.917z" fill="#575E75" fill-rule="evenodd"/></svg>